#!OML:ASF E:/inclinewalkrobotboard/Project1/Captureday1/Session1/subject1.ASF
:FULLY-SPECIFIED
:DEGREES
26
root 0 0 0 1.0528137250299083 -3.679778939446245 1.862908402149904
lowerback 11.924765842706458 0.8571229044676553 -0.05825746922780889
upperback -4.224178740165984 1.0869019097520844 -0.5564891700930165
thorax -11.297878329605567 0.4962502310330202 -0.8002264917980729
lowerneck -5.666327843660834 1.4460252854488955 4.565830083947042
upperneck 18.08042936519315 2.882287089842562 -8.31944528230868
head 6.588124554236581 1.0475811227664007 -3.2218987951107767
rclavicle -8.961871602038237E-16 -3.4378022019760295E-16
rhumerus 20.16050927992479 14.71028122501167 -48.139874962427776
rradius 72.54531061842319
rwrist 26.736936672031185
rhand -34.75584036262272 -57.39306888550434
rfingers 7.125020000000038
rthumb -7.917144225160981 -87.30782722858682
lclavicle 9.02942177853518E-16 -1.7502193839932194E-15
lhumerus 20.851501889299094 -12.7520499215938 45.281337695182216
lradius 69.94641055547268
lwrist -22.275572377452015
lhand -44.77467952179851 -69.72375758233787
lfingers 7.125020000000029
lthumb -17.56608118551376 -40.525527689030724
rfemur -24.894413923670964 -2.212288225583442 17.2083826099035
rtibia 54.0487822962226
rfoot -29.079462629084674 -16.73290570819421
rtoes -17.671880775575765
lfemur -26.677032827810763 2.405951949518657 -18.294748681337733
ltibia 54.166264929304305
lfoot -31.060947839123116 -3.5287754892763856
ltoes -19.631682510892368
27
root 0 0 0 1.0526519147900002 -3.6800749284210816 1.8628716074675595
lowerback 11.924760357029628 0.8570945209365832 -0.05819046043009174
upperback -4.224076389506486 1.0868773671052911 -0.556429260816367
thorax -11.297757316122624 0.4962373409205 -0.8001919287934736
lowerneck -5.665760881111411 1.4459452594431443 4.565895288680807
upperneck 18.08008030246928 2.8822017274313074 -8.319683427623053
head 6.587915709577805 1.0475464518008981 -3.2219927515589624
rclavicle -8.950325729566089E-16 -3.4395180016230613E-16
rhumerus 20.160723518760385 14.710539818295185 -48.1397828976617
rradius 72.54545409011658
rwrist 26.73686476472735
rhand -34.75543478611838 -57.392499239634155
rfingers 7.125020000000038
rthumb -7.916754933645777 -87.30725665953777
lclavicle 9.042690714365378E-16 -1.7502661229097168E-15
lhumerus 20.851700203282363 -12.75239586396734 45.281021309970484
lradius 69.94665076200761
lwrist -22.275606589775546
lhand -44.77452626544048 -69.72278790611429
lfingers 7.125020000000029
lthumb -17.56593173575667 -40.52454357515071
rfemur -24.894431376260073 -2.2122885001876327 17.208387917945885
rtibia 54.04879733456616
rfoot -29.0794936806076 -16.73289331580878
rtoes -17.67187293570576
lfemur -26.67676973600594 2.405986306978477 -18.29473394384112
ltibia 54.1661529568655
lfoot -31.060890456964103 -3.5287051099340103
ltoes -19.632082731013305
28
root 0 0 0 1.053508232581697 -3.6784819344972384 1.8630674296851573
lowerback 11.924846622645196 0.8572440832151941 -0.058470375498674176
upperback -4.224567749624602 1.08701302165585 -0.5567271296954981
thorax -11.29836210247457 0.496307383500609 -0.8003985582292394
lowerneck -5.668408483702136 1.446268178635369 4.56556030707274
upperneck 18.081628831083158 2.8825049217523318 -8.318542954843695
head 6.58886317342155 1.047671363436519 -3.2215492857998296
rclavicle -9.067139121154715E-16 -3.3492428014515045E-16
rhumerus 20.16101194329105 14.709898140802311 -48.13953093152224
rradius 72.54558102857393
rwrist 26.737512608729666
rhand -34.75648910963468 -57.394151842573194
rfingers 7.125020000000038
rthumb -7.9178214992520894 -87.30825755385553
lclavicle 8.956938594052058E-16 -1.7439060162166798E-15
lhumerus 20.851840279318015 -12.752339043845256 45.28183713076225
lradius 69.94661130815392
lwrist -22.27508686434698
lhand -44.77509873299907 -69.72482792355433
lfingers 7.1250200000000286
lthumb -17.56656645608312 -40.526696542070496
rfemur -24.893720764573423 -2.2117879118925936 17.207458297862708
rtibia 54.04905240338
rfoot -29.07887271417992 -16.73393097421632
rtoes -17.672453331511427
lfemur -26.678543773831336 2.406229658403709 -18.294784894045815
ltibia 54.16359034587477
lfoot -31.06304559773813 -3.525965228234852
ltoes -19.632473684469556
29
root 0 0 0 1.0531087309052762 -3.6792469707306528 1.8629785491151112
lowerback 11.924765746701524 0.8571760178422483 -0.05837865813018592
upperback -4.224363032422329 1.0869482179770427 -0.5566010313194145
thorax -11.298090481539578 0.49627469375029454 -0.8002921559148416
lowerneck -5.66738501364226 1.446178264552021 4.565726300290851
upperneck 18.081082361754195 2.8824548181977008 -8.319022101511003
head 6.588514925877362 1.0476488660906242 -3.221732929660795
rclavicle -8.970342381177971E-16 -3.440254923029896E-16
rhumerus 20.160276220963787 14.709985001042716 -48.13999993775289
rradius 72.54514117392576
rwrist 26.73701899498899
rhand -34.75631248165902 -57.393696362169024
rfingers 7.125020000000038
rthumb -7.917591481672659 -87.30844731798224
lclavicle 9.024201230321987E-16 -1.7504163784942645E-15
lhumerus 20.851365140144573 -12.751748521463153 45.28166501444596
lradius 69.94614643453113
lwrist -22.275472928173134
lhand -44.77483465678075 -69.72479913516776
lfingers 7.125020000000029
lthumb -17.566226301544912 -40.526574190091026
rfemur -24.894431199428624 -2.2122640549819352 17.20827898816939
rtibia 54.04865487605747
rfoot -29.079573224793805 -16.732967743122348
rtoes -17.67209737745782
lfemur -26.67701320713728 2.4058628561208333 -18.29477611550998
ltibia 54.16504592206073
lfoot -31.06161887028084 -3.528340764057998
ltoes -19.632149792586436
30
root 0 0 0 1.0529840521423082 -3.6794650364999444 1.8629514380258572
lowerback 11.92476705754054 0.8571538897846672 -0.05832733450554589
upperback -4.224286611642143 1.0869289111050133 -0.5565549362948079
thorax -11.298003181786628 0.49626447266903073 -0.800265856227221
lowerneck -5.666935217154752 1.4461134719608189 4.5657724539327145
upperneck 18.0808055176747 2.882383436906345 -8.319203777942109
head 6.588349110743154 1.0476200075073285 -3.2218043938257286
rclavicle -8.96596224022869E-16 -3.4335125212175147E-16
rhumerus 20.160280475311893 14.710036033349027 -48.13999332022117
rradius 72.54515861532484
rwrist 26.736967892402106
rhand -34.756191199961705 -57.39347731517903
rfingers 7.125020000000038
rthumb -7.917478416695672 -87.30824476044921
lclavicle 9.023031644646572E-16 -1.749862477873134E-15
lhumerus 20.85138548772668 -12.751876826044375 45.281567554389916
lradius 69.9462761219956
lwrist -22.275520080202973
lhand -44.77477948911821 -69.724317098856
lfingers 7.125020000000029
lthumb -17.566174932614853 -40.52609926173676
rfemur -24.89440063475272 -2.212287960528522 17.208361562316366
rtibia 54.048710023929694
rfoot -29.079481852886726 -16.732921300458205
rtoes -17.6720048107516
lfemur -26.6770414351741 2.4058531782215895 -18.294747792393135
ltibia 54.166005013627135
lfoot -31.061180518217302 -3.5287593301107845
ltoes -19.631796069302872
31
root 0 0 0 1.0527691812639162 -3.6798604039359395 1.862898578744875
lowerback 11.924763915367603 0.8571151239353051 -0.05823916131785056
upperback -4.224150734770558 1.0868951584499873 -0.5564728530537552
thorax -11.297844968772194 0.49624669179953934 -0.8002170597848116
lowerneck -5.66617243998315 1.4460035889651164 4.565848556115542
upperneck 18.08033440571902 2.882264110659407 -8.319511127384343
head 6.588067555113534 1.0475717814571792 -3.221924804706193
rclavicle -8.95813435293356E-16 -3.4380736896520327E-16
rhumerus 20.160573413429162 14.71035915221973 -48.13985022867922
rradius 72.54535406683438
rwrist 26.736912998872832
rhand -34.75572159632827 -57.39289906303218
rfingers 7.125020000000038
rthumb -7.917030122759142 -87.30765642472718
lclavicle 9.033784303558127E-16 -1.7502108216977718E-15
lhumerus 20.851562958344957 -12.752157127082487 45.28123977669426
lradius 69.94648402726571
lwrist -22.27558241952612
lhand -44.7746309504285 -69.72345333910098
lfingers 7.125020000000029
lthumb -17.566033755751047 -40.525218239115084
rfemur -24.894416032023624 -2.212287428959236 17.208383718753943
rtibia 54.04878090933497
rfoot -29.079469106740472 -16.73290008710721
rtoes -17.67188609263464
lfemur -26.67692747543014 2.4059553757333187 -18.294742713247082
ltibia 54.166205535822876
lfoot -31.060941439037382 -3.5287565042463256
ltoes -19.631844126422614
32
root 0 0 0 1.05261639307523 -3.6801399010080305 1.862863772192613
lowerback 11.924758815797565 0.8570883162104085 -0.058175861379284294
upperback -4.224054054503871 1.0868719830068971 -0.556416248004062
thorax -11.29773070784745 0.4962345185778466 -0.8001844057741825
lowerneck -5.665636966836361 1.4459279610837572 4.5659100217781745
upperneck 18.08000458459775 2.882183408643219 -8.319735936515888
head 6.587870260075906 1.0475390049247815 -3.222013493206838
rclavicle -8.9473402807137E-16 -3.439734502809401E-16
rhumerus 20.160774729332054 14.710602049272385 -48.139763160798466
rradius 72.54548878093516
rwrist 26.736845847420245
rhand -34.75533994417364 -57.392363611153655
rfingers 7.125020000000038
rthumb -7.916663816158442 -87.3071202477866
lclavicle 9.04617483747319E-16 -1.7502592240122265E-15
lhumerus 20.851748958348786 -12.75248145516197 45.28094313661453
lradius 69.94670941856103
lwrist -22.27561460224993
lhand -44.77448748299799 -69.72254499144061
lfingers 7.125020000000029
lthumb -17.565893865011034 -40.52429650053361
rfemur -24.894433055129184 -2.2122878625235174 17.208388802749262
rtibia 54.04879622186445
rfoot -29.079498848703004 -16.73288882613049
rtoes -17.671877185263863
lfemur -26.67668560121421 2.405989041222891 -18.294729178708973
ltibia 54.16610552804163
lfoot -31.060885342437814 -3.528689959398288
ltoes -19.632211776547212
33
root 0 0 0 1.0534826843799467 -3.678528653160522 1.8630617913154914
lowerback 11.924845521788939 0.8572396194722662 -0.05845988715591194
upperback -4.224551695836544 1.087009147463195 -0.556717771583523
thorax -11.298342982917234 0.4963053524112392 -0.8003931425543381
lowerneck -5.668319383554568 1.4462557403895127 4.565570882365769
upperneck 18.081574387482192 2.8824917490068875 -8.31858068784435
head 6.5888304937803195 1.0476660084897231 -3.2215641886468465
rclavicle -9.06500180158121E-16 -3.3493951600523575E-16
rhumerus 20.16104853431957 14.709942621347906 -48.13951681589239
rradius 72.5456058192836
rwrist 26.737499076101784
rhand -34.756421261033935 -57.39405475689654
rfingers 7.125020000000038
rthumb -7.917756312771154 -87.30815990863454
lclavicle 8.95943800236516E-16 -1.743900985789535E-15
lhumerus 20.85187515348047 -12.752400279975138 45.281781178260104
lradius 69.94665326994351
lwrist -22.275092623822225
lhand -44.775070972102114 -69.724654070643
lfingers 7.1250200000000286
lthumb -17.566539347740388 -40.52651970044194
rfemur -24.89372196764706 -2.2117874550677668 17.207458940002272
rtibia 54.04905161744911
rfoot -29.078876444092558 -16.73392775597847
rtoes -17.672456367680006
lfemur -26.678483590085417 2.4062316267062167 -18.294781484760705
ltibia 54.163556462891314
lfoot -31.063041925096094 -3.525954370465323
ltoes -19.632565848633654
